<svg width="211" height="71" viewBox="0 0 211 71" fill="none" xmlns="http://www.w3.org/2000/svg">
<path d="M141.931 18.5479C141.931 18.5479 133.846 16.4538 129.554 37.4946L125.961 52.5522H131.351C131.351 52.5522 132.549 46.569 133.347 43.9763C133.347 43.9763 133.946 40.187 139.735 43.378C139.735 43.378 146.622 47.6659 151.313 52.5522H157.801C157.801 52.5522 153.709 17.5508 141.931 18.5479ZM134.745 37.0957C135.643 32.5086 138.537 24.2319 141.132 24.5311C145.524 25.2291 148.618 43.0788 148.618 43.0788C140.334 35.8991 134.745 37.0957 134.745 37.0957Z" fill="#251267"/>
<path d="M83.9409 18.5469C83.9409 18.5469 87.8335 52.0525 99.1122 52.95C99.1122 52.95 102.705 54.2463 106.798 47.7646C108.694 50.7561 110.89 52.7505 113.585 52.95C113.585 52.95 124.065 56.839 129.455 18.846H122.368C122.368 18.846 119.274 35.3994 117.278 40.3854C117.278 40.3854 115.681 46.2688 113.285 46.4682C113.285 46.4682 111.688 47.4654 109.492 42.1803C108.395 39.5876 107.197 35.5988 105.899 29.2168V29.1171L103.803 18.5469H98.3137C98.3137 18.5469 99.6112 30.1143 103.005 39.787C102.905 39.9865 102.805 40.1859 102.805 40.3854C102.805 40.3854 101.208 46.2688 98.8127 46.4682C98.8127 46.4682 95.3193 48.5623 91.4267 29.2168L89.4305 18.5469H83.9409Z" fill="#251267"/>
<path d="M51.0034 18.9473H58.4892C58.4892 18.9473 57.4911 47.1678 62.6813 46.6692C67.8714 46.1706 73.2612 27.224 74.6586 18.9473H80.9467V52.5526H73.9599V37.3953C73.9599 37.3953 69.9675 52.054 62.5815 52.9515C61.9826 53.0512 61.4835 52.9515 60.8847 52.752C55.994 50.9571 52.0015 48.6636 51.0034 18.9473Z" fill="#251267"/>
<path d="M190.738 52.7511H183.253C183.253 52.7511 184.251 24.5306 179.061 25.0292C173.87 25.5278 168.481 44.4744 167.083 52.7511H160.795V19.1457H167.782V34.303C167.782 34.303 171.974 22.4365 178.961 18.9463C179.659 18.6471 180.358 18.4477 181.157 18.5474C184.351 19.046 191.437 23.4337 190.738 52.7511Z" fill="#251267"/>
<path d="M44.9149 24.431C45.5137 28.6192 47.4101 45.8706 38.6268 51.4548C36.0317 53.0503 33.0374 53.4492 29.544 52.6515C26.5497 51.9534 23.0563 49.8593 19.9622 46.768L22.657 41.4829C25.1523 44.4745 28.1466 46.768 31.2408 47.1669C32.7379 47.3664 34.2351 46.5686 34.9338 45.1725C37.429 40.386 38.3273 31.1121 37.429 25.3284C36.1315 25.3284 34.9338 25.3284 33.8359 25.2287C28.0468 24.9296 23.2559 23.0349 22.8567 22.9352L23.8548 17.9492C27.448 18.9464 38.6268 20.7414 47.4101 17.9492L47.8094 23.2343C47.1107 23.7329 46.0128 24.1318 44.9149 24.431Z" fill="#251267"/>
</svg>
