<svg width="144" height="143" viewBox="0 0 144 143" fill="none" xmlns="http://www.w3.org/2000/svg">
<g filter="url(#filter0_d_285_518)">
<rect x="22" y="12" width="100" height="99" rx="10" fill="url(#paint0_linear_285_518)"/>
<path d="M83.0896 50.4631C83.6918 54.6392 85.5986 71.8409 76.767 77.4091C74.1577 79 71.147 79.3977 67.6344 78.6023C64.6237 77.9063 61.1111 75.8182 58 72.7358L60.7097 67.4659C63.2186 70.4489 66.2294 72.7358 69.3405 73.1335C70.8459 73.3324 72.3513 72.5369 73.0538 71.1449C75.5627 66.3722 76.4659 57.125 75.5627 51.358C74.2581 51.358 73.0538 51.358 71.9498 51.2585C66.129 50.9602 61.3118 49.071 60.9104 48.9716L61.914 44C65.5269 44.9943 76.767 46.7841 85.5986 44L86 49.2699C85.2975 49.767 84.1935 50.1648 83.0896 50.4631Z" fill="white"/>
</g>
<defs>
<filter id="filter0_d_285_518" x="0" y="0" width="144" height="143" filterUnits="userSpaceOnUse" color-interpolation-filters="sRGB">
<feFlood flood-opacity="0" result="BackgroundImageFix"/>
<feColorMatrix in="SourceAlpha" type="matrix" values="0 0 0 0 0 0 0 0 0 0 0 0 0 0 0 0 0 0 127 0" result="hardAlpha"/>
<feMorphology radius="2" operator="dilate" in="SourceAlpha" result="effect1_dropShadow_285_518"/>
<feOffset dy="10"/>
<feGaussianBlur stdDeviation="10"/>
<feComposite in2="hardAlpha" operator="out"/>
<feColorMatrix type="matrix" values="0 0 0 0 0.145098 0 0 0 0 0.0705882 0 0 0 0 0.403922 0 0 0 0.25 0"/>
<feBlend mode="normal" in2="BackgroundImageFix" result="effect1_dropShadow_285_518"/>
<feBlend mode="normal" in="SourceGraphic" in2="effect1_dropShadow_285_518" result="shape"/>
</filter>
<linearGradient id="paint0_linear_285_518" x1="32.4478" y1="-23.9575" x2="143.422" y2="-5.39552" gradientUnits="userSpaceOnUse">
<stop stop-color="#471267"/>
<stop offset="0.442708" stop-color="#5B1267"/>
<stop offset="1" stop-color="#251267"/>
</linearGradient>
</defs>
</svg>
